<?xml version="1.0" standalone="no"?><!DOCTYPE svg PUBLIC "-//W3C//DTD SVG 1.1//EN" "http://www.w3.org/Graphics/SVG/1.1/DTD/svg11.dtd"><svg t="1732008288173" class="icon" viewBox="0 0 1024 1024" version="1.1" xmlns="http://www.w3.org/2000/svg" p-id="6309" xmlns:xlink="http://www.w3.org/1999/xlink" width="200" height="200"><path d="M371.230197 435.158707a89.597101 89.597101 0 1 0 89.597101 89.597101 89.597101 89.597101 0 0 0-89.597101-89.597101z m0 147.254201a57.6571 57.6571 0 1 1 57.6571-57.6571 57.593601 57.593601 0 0 1-57.6571 57.6571zM512.070998 0a511.992507 511.992507 0 1 0 511.929008 511.992507A511.992507 511.992507 0 0 0 512.070998 0z m0 998.331415a486.402407 486.402407 0 1 1 486.338908-486.338908 486.338908 486.338908 0 0 1-486.338908 486.338908zM652.8483 307.208204a64.007001 64.007001 0 1 0 64.007001 63.943502 63.943502 63.943502 0 0 0-64.007001-63.943502z m0 102.106406a38.099405 38.099405 0 1 1 38.099405-38.099405 38.099405 38.099405 0 0 1-38.099405 38.099405zM588.841299 588.762809a102.423901 102.423901 0 1 0 102.423901 102.423901 102.360402 102.360402 0 0 0-102.423901-102.423901z m0 166.430901a64.0705 64.0705 0 1 1 64.007001-64.007 64.007001 64.007001 0 0 1-64.007001 64.007zM448.063997 230.374404a38.099405 38.099405 0 1 0 38.099405 38.099405 38.4169 38.4169 0 0 0-38.099405-38.099405z" fill="#515151" p-id="6310"></path></svg>